# vtk DataFile Version 3.0
Mesh generated by axom::mint::write_vtk
ASCII
DATASET UNSTRUCTURED_GRID
POINTS 171 double
-148.188989 -59.063786 -236.63033
-69.914696 -38.392069 -236.63033
-143.229479 -70.241596 -111.125238
-60.435299 -52.054933 -125.593554
-65.615328 -145.406122 -236.63033
-30.32088 -73.77509 -236.63033
-69.038902 -143.813057 -125.669534
-35.014186 -71.666925 -132.25295
-148.184286 -59.075581 0
-68.31646 -41.168819 -66.469194
-71.842646 -142.432949 0
-30.790858 -73.580065 -66.469194
-37.548626 -38.267985 0
-34.140909 -26.885682 -66.469194
-136.609065 -82.380391 -176.865314
-159.526065 -0 -236.63033
-159.526065 -0 -184.205197
-155.650415 34.94898 -236.63033
-155.39639 36.062827 -174.946045
-101.723663 -43.899056 -236.63033
-107.28532 -48.840793 -178.775562
-109.655805 14.601497 -236.63033
-111.443871 15.863384 -170.179329
-159.526065 -0 -115.521565
-156.544615 30.697704 -110.833946
-103.956665 -48.235513 -117.193896
-112.07534 16.942877 -113.135008
-131.894368 89.735332 -236.63033
-139.561583 77.273088 -177.621847
-93.697409 80.820657 -236.63033
-94.799351 71.712145 -176.219067
-139.96266 76.544232 -120.671396
-90.350133 61.971359 -108.736466
-66.663877 -43.795763 -188.379473
-79.763033 0 -236.63033
-79.763033 -0 -180.137509
-73.352483 31.32808 -236.63033
-74.843552 27.57869 -185.563625
-79.763033 -0 -120.386935
-75.726169 25.053717 -122.1854
-41.129333 68.340999 -236.63033
-40.441214 68.750633 -172.333003
-40.685706 68.606229 -123.261005
-143.035339 -70.636091 -55.321782
-159.526065 -0 -59.179941
-156.383089 31.510238 -56.902192
-107.345172 -53.343045 -58.288807
-117.755272 17.268744 -55.515692
-159.526065 0 0
-156.31909 31.823012 0
-98.458385 -32.277709 0
-100.350287 18.052134 0
-133.217555 87.759037 -59.509482
-93.392204 73.553409 -65.232434
-124.439788 99.815173 0
-80.872649 86.342779 0
-79.763033 -0 -66.469194
-72.040864 34.238176 -66.469194
-33.98377 19.305152 -66.469194
-35.426276 11.067878 0
-41.129333 68.340999 -66.469194
-36.950783 76.09182 0
-66.760653 -144.884715 -174.985345
-43.634277 -101.795794 -236.63033
-49.957062 -99.013031 -165.469299
18.09162 -158.496833 -236.63033
17.458975 -158.567808 -172.546909
22.513846 -109.081005 -236.63033
15.816159 -113.390352 -174.739378
-43.960398 -99.390373 -113.103706
20.347105 -158.223136 -113.812096
16.70651 -113.496476 -115.439221
-37.858292 -70.206062 -182.486112
21.023052 -76.94202 -236.63033
14.772728 -78.383084 -178.796128
7.675076 -79.392913 -126.994352
84.286645 -135.440377 -236.63033
77.8524 -139.239252 -174.561142
83.894075 -86.247372 -236.63033
70.505595 -96.434756 -183.639349
70.506489 -143.099268 -124.366747
66.447957 -96.941664 -110.985737
68.31646 -41.168819 -236.63033
68.137155 -41.466486 -173.363017
68.26133 -41.261753 -122.672539
-60.573287 -147.578598 -60.320769
-45.406066 -104.728517 -59.494071
18.09162 -158.496873 -59.179941
16.637112 -116.282419 -53.19784
-40.232919 -87.242959 0
18.09162 -158.496833 0
18.09162 -100.389772 0
18.09162 -77.684186 -66.469194
10.754156 -22.951331 -66.469194
16.091117 -35.96877 0
84.730006 -135.164313 -71.076291
80.639445 -93.283093 -60.675889
100.804216 -123.640088 0
88.998679 -82.365162 0
68.31646 -41.168819 -66.469194
77.312573 -41.168819 0
79.763033 0 -121.311075
9.655687 79.17575 -236.63033
19.774006 77.273088 -118.400894
79.763033 0 -236.63033
77.312573 77.273088 -236.63033
86.363879 74.897276 -114.016782
19.772751 77.273088 -66.469194
79.763033 0 -66.469194
77.312573 77.273088 0
-42.831661 153.668057 -236.63033
-27.145649 157.199489 -114.595385
-49.569698 151.628436 0
-40.816145 111.869733 -236.63033
-35.21156 117.715966 -178.748301
14.765131 78.384516 -163.120569
17.731711 123.302145 -236.63033
15.508351 124.048744 -179.442905
-30.19434 109.246291 -112.054428
16.265181 123.458214 -120.176813
-30.758329 156.532715 -174.142527
18.09162 158.496833 -236.63033
20.424408 158.213176 -169.37238
21.449324 158.077487 -117.456707
72.23779 142.233005 -236.63033
82.570832 136.494041 -177.621847
77.312573 77.273088 -177.621847
78.286919 138.995409 -115.166628
-36.487095 112.408402 -60.319738
12.623484 122.921259 -53.086433
-29.572269 117.587385 0
18.09162 77.273088 0
12.191691 159.058822 0
-56.934227 149.020332 -57.090218
21.547902 158.06408 -60.272132
82.570832 136.494041 -59.179941
77.312573 77.273088 -59.179941
77.4526 139.461678 0
144.744994 -67.061275 -236.63033
152.42284 -47.072746 -117.195778
149.599604 -55.394122 0
79.763033 0 -177.621847
126.096534 -37.242803 -236.63033
121.442679 -31.346653 -174.327849
125.202701 13.018805 -236.63033
117.274151 19.980549 -180.068426
72.059634 34.198692 -117.381766
111.624011 -29.634848 -106.766511
124.714377 17.33036 -125.880317
139.561252 77.273088 -236.63033
141.302255 74.042139 -182.070657
139.561583 77.273088 -118.400894
153.800985 -42.353543 -183.751129
159.526065 0 -236.63033
159.526065 0 -177.621847
156.873128 28.9678 -236.63033
156.318293 31.830125 -177.220195
159.526065 0 -115.80872
156.999332 28.280298 -107.328477
120.41332 -36.651643 -59.984782
120.033109 16.584746 -59.611682
61.300901 18.571995 0
118.398599 -28.815982 0
159.526065 0 0
137.869431 80.253258 -63.626656
142.466453 71.776166 0
146.204642 -63.818242 -56.146268
159.526065 0 -64.649301
156.817598 29.271254 -57.748852
-90.247364 131.544589 -147.90814
128.940529 -93.930323 -145.985725
CELLS 574 2870
4 10 91 90 88
4 160 106 148 146
4 144 142 154 143
4 52 53 133 54
4 126 149 125 150
4 72 73 63 5
4 147 99 108 84
4 95 166 96 97
4 22 23 26 24
4 20 4 62 14
4 68 74 67 63
4 18 24 22 28
4 155 156 150 144
4 149 155 150 144
4 115 119 103 106
4 46 85 43 2
4 157 167 159 166
4 58 161 107 131
4 113 110 29 169
4 66 68 65 4
4 72 7 3 64
4 17 21 16 15
4 77 79 170 76
4 81 79 71 75
4 110 114 117 120
4 107 161 109 131
4 147 159 108 99
4 96 166 98 97
4 95 71 70 88
4 52 47 31 53
4 118 169 32 53
4 95 71 88 81
4 11 69 7 75
4 92 99 93 94
4 146 106 107 136
4 169 41 114 42
4 4 68 63 64
4 40 113 29 30
4 6 71 85 70
4 28 22 30 31
4 105 144 126 104
4 96 170 95 81
4 108 160 136 161
4 170 159 139 147
4 57 58 60 61
4 115 126 141 104
4 57 59 51 56
4 126 150 145 144
4 49 47 44 45
4 105 126 124 116
4 145 148 126 146
4 46 85 10 43
4 22 24 26 31
4 80 77 66 68
4 158 151 150 148
4 107 131 129 61
4 157 160 159 167
4 116 126 124 117
4 126 144 141 104
4 53 47 31 26
4 55 57 61 59
4 47 53 52 54
4 110 116 121 117
4 20 64 62 4
4 17 16 22 18
4 47 55 53 54
4 122 117 125 127
4 129 128 133 111
4 81 147 170 84
4 102 126 116 117
4 89 86 10 46
4 68 67 65 4
4 64 69 3 25
4 88 97 90 95
4 86 92 88 71
4 52 24 31 47
4 0 16 20 19
4 104 82 142 141
4 34 21 35 37
4 66 76 68 77
4 77 76 68 79
4 82 78 142 143
4 170 78 138 76
4 89 46 10 50
4 141 126 115 146
4 159 162 108 100
4 110 113 117 114
4 30 41 169 42
4 49 47 52 54
4 23 47 46 25
4 99 96 100 92
4 16 23 20 22
4 81 96 159 99
4 47 51 50 56
4 170 166 139 159
4 49 51 47 54
4 88 98 92 91
4 50 46 10 8
4 53 60 128 61
4 22 35 20 21
4 47 50 46 56
4 38 33 3 25
4 88 95 87 70
4 85 88 90 87
4 114 120 110 169
4 48 46 44 47
4 157 158 156 148
4 160 158 157 148
4 79 78 170 76
4 147 157 159 139
4 115 119 106 126
4 53 169 52 133
4 51 59 50 56
4 81 99 147 84
4 71 88 85 70
4 46 6 85 2
4 48 43 44 46
4 22 38 20 35
4 9 86 89 46
4 152 170 142 138
4 0 16 14 20
4 42 30 32 169
4 151 127 150 126
4 114 102 117 115
4 107 127 129 135
4 108 146 148 101
4 141 148 145 146
4 21 22 35 37
4 148 157 160 147
4 110 113 116 117
4 118 111 169 128
4 53 32 60 57
4 166 170 96 159
4 89 92 11 12
4 48 50 46 47
4 51 55 47 54
4 86 85 10 46
4 89 92 91 88
4 86 88 85 71
4 167 160 159 163
4 91 92 12 94
4 159 98 100 96
4 10 89 91 88
4 55 47 53 57
4 88 95 90 87
4 96 97 88 95
4 8 46 10 43
4 117 111 114 118
4 126 149 124 125
4 129 118 128 111
4 164 165 136 160
4 102 105 126 104
4 30 32 169 31
4 81 159 147 99
4 151 127 126 106
4 92 99 94 100
4 86 71 85 6
4 107 109 129 131
4 144 142 143 141
4 74 79 67 73
4 79 84 170 83
4 170 81 96 159
4 158 168 164 160
4 17 16 21 22
4 86 6 85 46
4 89 12 9 50
4 58 107 60 61
4 47 49 44 48
4 119 107 118 103
4 108 146 160 148
4 118 169 53 128
4 128 55 133 53
4 156 153 154 144
4 144 142 153 154
4 82 143 142 141
4 104 142 144 141
4 141 145 126 146
4 148 156 154 145
4 158 150 156 148
4 162 159 160 163
4 68 79 67 74
4 42 169 32 118
4 15 16 0 19
4 117 111 120 114
4 19 33 34 35
4 68 67 4 63
4 157 156 154 148
4 107 135 129 109
4 157 148 154 143
4 91 92 94 100
4 14 16 2 20
4 92 81 71 75
4 9 11 89 86
4 69 11 7 3
4 91 98 92 100
4 19 20 33 35
4 66 68 62 6
4 80 68 66 71
4 4 19 20 63
4 115 126 106 146
4 30 113 41 40
4 108 160 161 162
4 21 35 19 34
4 20 19 33 63
4 15 16 19 21
4 20 63 33 64
4 81 159 170 147
4 20 35 19 21
4 16 20 19 21
4 35 22 38 39
4 148 101 143 147
4 129 137 131 109
4 160 164 151 106
4 55 112 133 54
4 130 129 112 132
4 112 129 133 132
4 128 129 133 112
4 128 129 112 130
4 58 107 61 131
4 132 129 133 134
4 108 162 161 100
4 166 140 98 97
4 170 139 152 143
4 147 157 160 159
4 153 142 152 154
4 170 80 95 81
4 61 129 128 130
4 16 24 22 18
4 16 22 20 21
4 128 111 169 133
4 143 170 142 152
4 159 96 100 99
4 160 106 151 148
4 129 135 134 137
4 160 163 161 162
4 157 148 143 147
4 28 24 22 31
4 49 47 45 52
4 30 32 39 42
4 61 107 128 129
4 103 107 118 42
4 60 32 42 57
4 80 79 77 68
4 143 78 142 170
4 95 80 70 71
4 121 117 124 122
4 110 117 121 122
4 149 144 126 105
4 129 111 134 119
4 58 161 131 59
4 119 127 106 126
4 58 131 61 59
4 23 47 26 24
4 12 93 11 13
4 80 79 68 71
4 85 88 87 70
4 129 131 130 61
4 127 129 134 119
4 129 127 134 135
4 127 134 123 119
4 149 150 126 144
4 148 160 108 147
4 108 136 107 161
4 89 12 11 9
4 98 97 88 96
4 56 12 58 59
4 58 93 107 161
4 57 26 32 39
4 166 167 159 163
4 148 101 141 143
4 79 84 74 75
4 157 143 154 152
4 126 145 141 144
4 157 143 152 139
4 148 106 126 146
4 139 157 159 166
4 101 147 108 84
4 162 159 108 160
4 159 96 166 98
4 12 13 11 9
4 56 13 58 12
4 56 9 13 12
4 23 46 2 25
4 117 119 118 115
4 129 107 128 118
4 53 55 133 54
4 117 118 114 115
4 102 126 105 116
4 79 76 67 78
4 142 152 154 143
4 119 127 107 106
4 136 165 135 109
4 117 127 119 126
4 150 127 125 126
4 101 148 108 147
4 164 165 135 136
4 80 66 70 71
4 70 71 66 6
4 79 74 68 75
4 74 73 67 63
4 83 84 143 141
4 82 79 74 73
4 127 107 129 119
4 42 114 169 118
4 114 111 169 118
4 11 92 89 86
4 38 20 33 25
4 23 25 20 22
4 27 22 21 30
4 117 119 115 126
4 110 117 122 120
4 122 111 120 117
4 41 113 114 102
4 61 130 128 55
4 127 119 123 122
4 143 78 170 79
4 143 101 141 84
4 151 106 126 148
4 157 147 143 139
4 66 71 68 6
4 84 79 81 75
4 79 170 143 83
4 55 57 53 61
4 3 33 72 64
4 25 38 20 22
4 57 60 53 61
4 23 46 43 2
4 44 43 23 46
4 92 99 81 75
4 89 92 12 91
4 89 92 88 86
4 10 88 90 85
4 10 86 88 85
4 10 89 88 86
4 45 24 52 47
4 44 24 45 47
4 30 22 26 31
4 30 22 39 26
4 47 24 31 26
4 44 23 24 47
4 44 46 23 47
4 122 117 124 125
4 117 126 124 125
4 41 30 37 42
4 108 136 160 146
4 125 127 117 126
4 159 162 100 98
4 159 140 162 98
4 166 140 159 98
4 140 159 162 163
4 140 166 159 163
4 158 160 151 148
4 158 164 151 160
4 147 160 108 159
4 57 32 42 39
4 3 25 69 9
4 25 6 86 46
4 23 25 2 20
4 9 25 86 46
4 72 5 63 33
4 38 35 33 20
4 16 23 22 24
4 16 23 2 20
4 103 119 107 106
4 47 57 51 56
4 55 53 128 61
4 53 26 31 32
4 113 114 169 30
4 160 163 165 161
4 164 168 165 160
4 160 165 109 161
4 136 109 107 161
4 136 160 109 161
4 127 119 122 117
4 119 111 122 117
4 119 118 111 117
4 129 118 111 119
4 129 107 118 119
4 147 101 143 84
4 82 78 79 73
4 79 78 67 73
4 170 78 142 138
4 42 118 32 60
4 22 26 38 39
4 23 26 25 22
4 17 18 22 28
4 151 127 106 164
4 106 127 107 135
4 164 127 106 135
4 164 135 106 136
4 146 136 107 108
4 136 165 109 160
4 101 146 148 141
4 145 150 126 148
4 154 148 145 143
4 145 148 141 143
4 151 126 150 148
4 82 79 78 143
4 82 83 143 141
4 82 79 143 83
4 7 69 64 75
4 20 2 6 25
4 25 6 46 2
4 25 56 9 38
4 46 56 9 25
4 47 56 46 25
4 114 111 120 169
4 55 57 59 51
4 29 110 27 169
4 29 169 27 30
4 166 170 95 96
4 81 79 80 71
4 95 80 71 81
4 81 71 88 92
4 99 84 81 75
4 26 56 38 39
4 53 26 32 57
4 26 56 25 38
4 47 56 25 26
4 23 47 25 26
4 26 38 25 22
4 68 76 65 67
4 66 76 65 68
4 68 76 67 79
4 75 79 71 68
4 33 64 25 20
4 20 63 64 4
4 0 19 20 4
4 128 130 112 55
4 134 111 123 119
4 129 133 134 111
4 0 20 14 4
4 20 6 2 14
4 129 135 137 109
4 81 170 79 84
4 64 74 63 72
4 20 62 6 14
4 19 63 1 33
4 29 27 21 30
4 109 165 135 137
4 115 102 126 104
4 115 114 42 118
4 30 113 114 41
4 60 118 32 53
4 40 29 37 30
4 17 22 21 27
4 128 169 53 133
4 30 41 114 169
4 55 47 57 51
4 30 26 39 32
4 113 114 110 169
4 30 27 28 169
4 30 26 32 31
4 114 113 117 102
4 28 22 27 30
4 17 22 27 28
4 103 106 107 146
4 115 106 103 146
4 103 42 118 115
4 119 103 118 115
4 50 59 12 56
4 50 12 9 56
4 46 50 9 56
4 89 50 9 46
4 128 112 133 55
4 129 134 132 137
4 129 132 130 131
4 129 137 132 131
4 40 113 41 102
4 37 22 39 30
4 42 37 39 30
4 35 22 39 37
4 21 22 37 30
4 37 29 21 30
4 47 51 49 48
4 47 50 51 48
4 119 111 123 122
4 60 107 128 61
4 113 169 29 30
4 32 53 169 31
4 31 169 52 53
4 1 63 5 33
4 3 33 64 25
4 19 1 34 33
4 53 47 26 57
4 57 56 26 39
4 47 56 26 57
4 56 58 57 59
4 57 58 61 59
4 159 100 108 99
4 93 108 107 161
4 155 153 156 144
4 60 118 53 128
4 60 107 118 128
4 42 107 118 60
4 115 126 102 117
4 40 30 37 41
4 8 50 46 48
4 43 8 46 48
4 34 21 37 36
4 36 29 21 37
4 40 29 36 37
4 153 142 138 152
4 158 167 168 160
4 168 163 165 160
4 160 167 168 163
4 157 167 158 160
4 66 68 4 62
4 68 74 63 64
4 75 74 64 72
4 75 74 68 64
4 38 25 3 9
4 9 69 86 25
4 75 68 71 64
4 69 71 64 75
4 12 92 11 93
4 3 69 11 9
4 64 6 25 20
4 74 73 63 72
4 64 63 33 72
4 117 113 116 102
4 117 121 124 116
4 4 68 64 62
4 7 64 72 75
4 64 7 3 69
4 11 92 69 75
4 69 92 71 75
4 91 97 90 88
4 98 97 91 88
4 105 149 124 126
4 13 93 58 12
4 12 93 58 59
4 58 93 161 59
4 94 92 12 93
4 12 93 59 94
4 59 93 161 94
4 94 108 161 100
4 93 108 161 94
4 99 108 94 100
4 99 108 93 94
4 42 41 114 115
4 41 102 114 115
4 79 84 83 74
4 82 79 83 74
4 148 150 156 145
4 150 156 145 144
4 156 154 145 144
4 144 143 145 141
4 144 143 154 145
4 20 64 6 62
4 62 68 64 6
4 71 68 6 64
4 11 92 86 69
4 69 92 86 71
4 9 11 86 69
4 136 135 107 109
4 106 135 107 136
4 136 164 160 106
4 136 106 160 146
4 95 81 88 96
4 96 81 88 92
4 99 81 96 92
4 98 96 88 92
4 96 98 100 92
4 69 71 6 64
4 64 6 69 25
4 25 69 86 6
4 69 71 86 6
4 31 169 30 28
4 77 80 170 79
4 80 170 79 81
4 170 139 143 147
4 170 147 143 84
4 170 84 143 83
CELL_TYPES 574
10
10
10
10
10
10
10
10
10
10
10
10
10
10
10
10
10
10
10
10
10
10
10
10
10
10
10
10
10
10
10
10
10
10
10
10
10
10
10
10
10
10
10
10
10
10
10
10
10
10
10
10
10
10
10
10
10
10
10
10
10
10
10
10
10
10
10
10
10
10
10
10
10
10
10
10
10
10
10
10
10
10
10
10
10
10
10
10
10
10
10
10
10
10
10
10
10
10
10
10
10
10
10
10
10
10
10
10
10
10
10
10
10
10
10
10
10
10
10
10
10
10
10
10
10
10
10
10
10
10
10
10
10
10
10
10
10
10
10
10
10
10
10
10
10
10
10
10
10
10
10
10
10
10
10
10
10
10
10
10
10
10
10
10
10
10
10
10
10
10
10
10
10
10
10
10
10
10
10
10
10
10
10
10
10
10
10
10
10
10
10
10
10
10
10
10
10
10
10
10
10
10
10
10
10
10
10
10
10
10
10
10
10
10
10
10
10
10
10
10
10
10
10
10
10
10
10
10
10
10
10
10
10
10
10
10
10
10
10
10
10
10
10
10
10
10
10
10
10
10
10
10
10
10
10
10
10
10
10
10
10
10
10
10
10
10
10
10
10
10
10
10
10
10
10
10
10
10
10
10
10
10
10
10
10
10
10
10
10
10
10
10
10
10
10
10
10
10
10
10
10
10
10
10
10
10
10
10
10
10
10
10
10
10
10
10
10
10
10
10
10
10
10
10
10
10
10
10
10
10
10
10
10
10
10
10
10
10
10
10
10
10
10
10
10
10
10
10
10
10
10
10
10
10
10
10
10
10
10
10
10
10
10
10
10
10
10
10
10
10
10
10
10
10
10
10
10
10
10
10
10
10
10
10
10
10
10
10
10
10
10
10
10
10
10
10
10
10
10
10
10
10
10
10
10
10
10
10
10
10
10
10
10
10
10
10
10
10
10
10
10
10
10
10
10
10
10
10
10
10
10
10
10
10
10
10
10
10
10
10
10
10
10
10
10
10
10
10
10
10
10
10
10
10
10
10
10
10
10
10
10
10
10
10
10
10
10
10
10
10
10
10
10
10
10
10
10
10
10
10
10
10
10
10
10
10
10
10
10
10
10
10
10
10
10
10
10
10
10
10
10
10
10
10
10
10
10
10
10
10
10
10
10
10
10
10
10
10
10
10
10
10
10
10
10
10
10
10
10
10
10
10
10
10
10
10
10
10
10
10
10
10
10
10
10
10
10
10
10
10
10
10
10
10
10
10
10
10
10
10
10
10
10
10
10
10
10
10
10
10
10
10
10
10
