# vtk DataFile Version 3.0
Mesh generated by axom::mint::write_vtk
ASCII
DATASET UNSTRUCTURED_GRID
POINTS 171 double
-148.188989 -59.063786 -236.63033
-69.914696 -38.392069 -236.63033
-143.229479 -70.241596 -111.125238
-60.435299 -52.054933 -125.593554
-65.615328 -145.406122 -236.63033
-30.32088 -73.77509 -236.63033
-69.038902 -143.813057 -125.669534
-35.014186 -71.666925 -132.25295
-148.184286 -59.075581 0
-68.31646 -41.168819 -66.469194
-71.842646 -142.432949 0
-30.790858 -73.580065 -66.469194
-37.548626 -38.267985 0
-34.140909 -26.885682 -66.469194
-136.609065 -82.380391 -176.865314
-159.526065 -0 -236.63033
-159.526065 -0 -184.205197
-155.650415 34.94898 -236.63033
-155.39639 36.062827 -174.946045
-101.723663 -43.899056 -236.63033
-107.28532 -48.840793 -178.775562
-109.655805 14.601497 -236.63033
-111.443871 15.863384 -170.179329
-159.526065 -0 -115.521565
-156.544615 30.697704 -110.833946
-103.956665 -48.235513 -117.193896
-112.07534 16.942877 -113.135008
-131.894368 89.735332 -236.63033
-139.561583 77.273088 -177.621847
-93.697409 80.820657 -236.63033
-94.799351 71.712145 -176.219067
-139.96266 76.544232 -120.671396
-90.350133 61.971359 -108.736466
-66.663877 -43.795763 -188.379473
-79.763033 0 -236.63033
-79.763033 -0 -180.137509
-73.352483 31.32808 -236.63033
-74.843552 27.57869 -185.563625
-79.763033 -0 -120.386935
-75.726169 25.053717 -122.1854
-41.129333 68.340999 -236.63033
-40.441214 68.750633 -172.333003
-40.685706 68.606229 -123.261005
-143.035339 -70.636091 -55.321782
-159.526065 -0 -59.179941
-156.383089 31.510238 -56.902192
-107.345172 -53.343045 -58.288807
-117.755272 17.268744 -55.515692
-159.526065 0 0
-156.31909 31.823012 0
-98.458385 -32.277709 0
-100.350287 18.052134 0
-133.217555 87.759037 -59.509482
-93.392204 73.553409 -65.232434
-124.439788 99.815173 0
-80.872649 86.342779 0
-79.763033 -0 -66.469194
-72.040864 34.238176 -66.469194
-33.98377 19.305152 -66.469194
-35.426276 11.067878 0
-41.129333 68.340999 -66.469194
-36.950783 76.09182 0
-66.760653 -144.884715 -174.985345
-43.634277 -101.795794 -236.63033
-49.957062 -99.013031 -165.469299
18.09162 -158.496833 -236.63033
17.458975 -158.567808 -172.546909
22.513846 -109.081005 -236.63033
15.816159 -113.390352 -174.739378
-43.960398 -99.390373 -113.103706
20.347105 -158.223136 -113.812096
16.70651 -113.496476 -115.439221
-37.858292 -70.206062 -182.486112
21.023052 -76.94202 -236.63033
14.772728 -78.383084 -178.796128
7.675076 -79.392913 -126.994352
84.286645 -135.440377 -236.63033
77.8524 -139.239252 -174.561142
83.894075 -86.247372 -236.63033
70.505595 -96.434756 -183.639349
70.506489 -143.099268 -124.366747
66.447957 -96.941664 -110.985737
68.31646 -41.168819 -236.63033
68.137155 -41.466486 -173.363017
68.26133 -41.261753 -122.672539
-60.573287 -147.578598 -60.320769
-45.406066 -104.728517 -59.494071
18.09162 -158.496873 -59.179941
16.637112 -116.282419 -53.19784
-40.232919 -87.242959 0
18.09162 -158.496833 0
18.09162 -100.389772 0
18.09162 -77.684186 -66.469194
10.754156 -22.951331 -66.469194
16.091117 -35.96877 0
84.730006 -135.164313 -71.076291
80.639445 -93.283093 -60.675889
100.804216 -123.640088 0
88.998679 -82.365162 0
68.31646 -41.168819 -66.469194
77.312573 -41.168819 0
79.763033 0 -121.311075
9.655687 79.17575 -236.63033
19.774006 77.273088 -118.400894
79.763033 0 -236.63033
77.312573 77.273088 -236.63033
86.363879 74.897276 -114.016782
19.772751 77.273088 -66.469194
79.763033 0 -66.469194
77.312573 77.273088 0
-42.831661 153.668057 -236.63033
-27.145649 157.199489 -114.595385
-49.569698 151.628436 0
-40.816145 111.869733 -236.63033
-35.21156 117.715966 -178.748301
14.765131 78.384516 -163.120569
17.731711 123.302145 -236.63033
15.508351 124.048744 -179.442905
-30.19434 109.246291 -112.054428
16.265181 123.458214 -120.176813
-30.758329 156.532715 -174.142527
18.09162 158.496833 -236.63033
20.424408 158.213176 -169.37238
21.449324 158.077487 -117.456707
72.23779 142.233005 -236.63033
82.570832 136.494041 -177.621847
77.312573 77.273088 -177.621847
78.286919 138.995409 -115.166628
-36.487095 112.408402 -60.319738
12.623484 122.921259 -53.086433
-29.572269 117.587385 0
18.09162 77.273088 0
12.191691 159.058822 0
-56.934227 149.020332 -57.090218
21.547902 158.06408 -60.272132
82.570832 136.494041 -59.179941
77.312573 77.273088 -59.179941
77.4526 139.461678 0
144.744994 -67.061275 -236.63033
152.42284 -47.072746 -117.195778
149.599604 -55.394122 0
79.763033 0 -177.621847
126.096534 -37.242803 -236.63033
121.442679 -31.346653 -174.327849
125.202701 13.018805 -236.63033
117.274151 19.980549 -180.068426
72.059634 34.198692 -117.381766
111.624011 -29.634848 -106.766511
124.714377 17.33036 -125.880317
139.561252 77.273088 -236.63033
141.302255 74.042139 -182.070657
139.561583 77.273088 -118.400894
153.800985 -42.353543 -183.751129
159.526065 0 -236.63033
159.526065 0 -177.621847
156.873128 28.9678 -236.63033
156.318293 31.830125 -177.220195
159.526065 0 -115.80872
156.999332 28.280298 -107.328477
120.41332 -36.651643 -59.984782
120.033109 16.584746 -59.611682
61.300901 18.571995 0
118.398599 -28.815982 0
159.526065 0 0
137.869431 80.253258 -63.626656
142.466453 71.776166 0
146.204642 -63.818242 -56.146268
159.526065 0 -64.649301
156.817598 29.271254 -57.748852
-90.247364 131.544589 -147.90814
128.940529 -93.930323 -145.985725
CELLS 52 260
4 115 119 103 106
4 81 79 71 75
4 95 71 70 88
4 95 71 88 81
4 146 106 107 136
4 80 77 66 68
4 122 117 125 127
4 141 126 115 146
4 88 95 87 70
4 115 119 106 126
4 107 127 129 135
4 92 81 71 75
4 80 68 66 71
4 115 126 106 146
4 80 79 77 68
4 95 80 70 71
4 129 111 134 119
4 119 127 106 126
4 80 79 68 71
4 127 129 134 119
4 129 127 134 135
4 127 134 123 119
4 79 84 74 75
4 119 127 107 106
4 117 127 119 126
4 80 66 70 71
4 79 74 68 75
4 127 107 129 119
4 117 119 115 126
4 127 119 123 122
4 84 79 81 75
4 92 99 81 75
4 125 127 117 126
4 103 119 107 106
4 127 119 122 117
4 119 111 122 117
4 106 127 107 135
4 146 136 107 108
4 81 79 80 71
4 95 80 71 81
4 81 71 88 92
4 99 84 81 75
4 75 79 71 68
4 134 111 123 119
4 103 106 107 146
4 115 106 103 146
4 119 111 123 122
4 79 84 83 74
4 106 135 107 136
4 95 81 88 96
4 96 81 88 92
4 99 81 96 92
CELL_TYPES 52
10
10
10
10
10
10
10
10
10
10
10
10
10
10
10
10
10
10
10
10
10
10
10
10
10
10
10
10
10
10
10
10
10
10
10
10
10
10
10
10
10
10
10
10
10
10
10
10
10
10
10
10
